# xmcd
# Copyright (C) 1995-1998 Ti Kan
#
# Track frame offsets:
#       150
#       17646
#       30495
#
# Disc length: 583 seconds
#
# Revision: 0
# Processed by: cddbd v1.5.2PL0 Copyright (c) Steve Scherf et al.
# Submitted via: CD-Transfer v1.0
#
DISCID=16024503
DTITLE=Tiroler Bluat - 
DYEAR=1900
DGENRE=
TTITLE0=Tiroler Landl
TTITLE1=Schleifer
TTITLE2=Bozner Bergsteigermarsch
EXTD=
EXTT0=
EXTT1=
EXTT2=
PLAYORDER=
